Coordinates
version=1
nRows=5
nColumns=40
inDegrees=yes

Units are S.I. units (second, meters, Newtons, ...)
If the header above contains a line with 'inDegrees', this indicates whether rotational values are in degrees (yes) or radians (no).

endheader
time	pelvis_tilt	pelvis_list	pelvis_rotation	pelvis_tx	pelvis_ty	pelvis_tz	hip_flexion_r	hip_adduction_r	hip_rotation_r	knee_angle_r	knee_angle_r_beta	ankle_angle_r	subtalar_angle_r	mtp_angle_r	hip_flexion_l	hip_adduction_l	hip_rotation_l	knee_angle_l	knee_angle_l_beta	ankle_angle_l	subtalar_angle_l	mtp_angle_l	lumbar_extension	lumbar_bending	lumbar_rotation	arm_flex_r	arm_add_r	arm_rot_r	elbow_flex_r	pro_sup_r	wrist_flex_r	wrist_dev_r	arm_flex_l	arm_add_l	arm_rot_l	elbow_flex_l	pro_sup_l	wrist_flex_l	wrist_dev_l
      2.12500000	     -4.67159770	    -10.72544594	      0.92535781	     -0.31966807	      0.85137196	     -0.97877712	     57.03385621	      1.58184675	     -5.68635852	     16.70349933	      0.29153106	    -17.20409258	      0.00000000	      0.00000000	     45.45916866	     -9.14686113	      2.02539849	     68.17951902	      1.18995709	     17.71133704	      0.00000000	      0.00000000	    -11.40198238	      3.73909628	      5.72410526	     89.91882138	     -8.96921638	     20.59332508	     31.91409322	     67.44128670	      0.00000000	      0.00000000	     89.94359813	    -25.35915247	     21.95288805	     44.52245911	     68.88671584	      0.00000000	      0.00000000
      2.13000000	     -4.60421223	    -10.42129407	      0.87231568	     -0.31950207	      0.85080565	     -0.97918976	     56.99826634	      1.41024535	     -5.46628176	     16.77068660	      0.29270370	    -16.96380107	      0.00000000	      0.00000000	     45.25040561	     -8.90289314	      1.69890141	     68.12795344	      1.18905710	     17.98641560	      0.00000000	      0.00000000	    -11.52638950	      3.40824036	      5.91613311	     89.91899781	     -9.41762175	     19.72150438	     31.90375130	     80.08434229	      0.00000000	      0.00000000	     89.94410106	    -25.09962528	     20.44726368	     44.09901468	     83.58083848	      0.00000000	      0.00000000
      2.13500000	     -4.68860424	    -10.66004317	      1.00064643	     -0.31998811	      0.84951324	     -0.97911679	     57.10127725	      1.47371630	     -5.66057429	     16.69769293	      0.29142972	    -16.97734615	      0.00000000	      0.00000000	     45.65594865	     -9.03717263	      1.97811101	     68.48521982	      1.19529257	     17.96084210	      0.00000000	      0.00000000	    -11.50212353	      3.67929321	      5.80599140	     89.92006357	     -9.34209938	     19.42098868	     31.95342070	     80.65841526	      0.00000000	      0.00000000	     89.94427771	    -25.11453326	     20.39898024	     44.14734598	     83.35833676	      0.00000000	      0.00000000
      2.14000000	     -4.71958768	    -10.68189632	      0.97785257	     -0.32014431	      0.84844173	     -0.97921414	     57.18928336	      1.49597613	     -5.68694069	     16.71904296	      0.29180235	    -17.02680333	      0.00000000	      0.00000000	     45.84154593	     -9.07262031	      1.98882516	     68.73345271	      1.19962506	     18.03859467	      0.00000000	      0.00000000	    -11.52248892	      3.72292064	      5.87067074	     89.92038275	     -9.39012904	     19.43757628	     32.07516694	     80.60336189	      0.00000000	      0.00000000	     89.94439252	    -25.09787491	     20.43561644	     44.16454889	     83.40540492	      0.00000000	      0.00000000
      2.14500000	     -4.73649823	    -10.66568087	      0.94785936	     -0.32031862	      0.84742482	     -0.97918279	     57.25462342	      1.51328586	     -5.64439537	     16.74156841	      0.29219549	    -17.00599211	      0.00000000	      0.00000000	     46.00073718	     -9.11167753	      1.92759299	     68.98295685	      1.20397972	     18.10388008	      0.00000000	      0.00000000	    -11.55846489	      3.70511442	      5.93947952	     89.92063384	     -9.39403266	     19.36531784	     32.07330640	     80.43925481	      0.00000000	      0.00000000	     89.94439390	    -25.02790019	     20.39414961	     44.14559526	     83.39601931	      0.00000000	      0.00000000
